<svg version="1.1" id="Layer_1" xmlns="http://www.w3.org/2000/svg" xmlns:xlink="http://www.w3.org/1999/xlink" x="0px" y="0px"
	 width="100%" viewBox="0 0 938 281" enable-background="new 0 0 938 281" xml:space="preserve">
<path fill="#FEFEFE" opacity="1.000000" stroke="none" 
	d="
M627.000000,282.000000 
	C418.000000,282.000000 209.500000,282.000000 1.000000,282.000000 
	C1.000000,188.333328 1.000000,94.666664 1.000000,1.000000 
	C313.666656,1.000000 626.333313,1.000000 939.000000,1.000000 
	C939.000000,94.666664 939.000000,188.333328 939.000000,282.000000 
	C835.166687,282.000000 731.333313,282.000000 627.000000,282.000000 
M593.887878,136.499878 
	C593.551025,122.950394 594.940308,109.343735 591.445801,95.927742 
	C586.667419,77.582466 577.776062,61.982738 562.027710,51.012039 
	C544.902527,39.082222 525.791321,35.755169 505.597076,40.262974 
	C490.550385,43.621719 478.070770,51.437496 468.297913,63.760479 
	C457.187592,77.769974 451.828217,93.962738 451.286346,111.250664 
	C450.706665,129.744980 449.505798,148.387100 452.959412,166.848877 
	C460.691803,208.183502 496.137421,229.517426 533.559814,223.784561 
	C559.176514,219.860245 577.430908,205.429764 587.573730,181.207901 
	C593.458191,167.155472 594.468994,152.456512 593.887878,136.499878 
M765.000610,156.500000 
	C765.000427,176.162643 764.946350,195.825714 765.105103,215.487076 
	C765.117371,217.017105 766.583374,219.837250 767.435242,219.861069 
	C778.186279,220.161850 788.948608,220.058670 800.229980,220.058670 
	C800.229980,195.608704 800.229980,171.742416 800.229980,148.226120 
	C821.338623,148.226120 841.913452,148.226120 862.997864,148.226120 
	C862.997864,172.355164 862.997864,196.085144 862.997864,220.111252 
	C873.150879,220.111252 882.801941,219.805496 892.419617,220.239197 
	C897.286255,220.458664 898.110718,218.770599 898.099243,214.340408 
	C897.955750,159.017899 898.007202,103.694870 898.008301,48.371979 
	C898.008362,47.372169 898.366150,46.154690 897.923645,45.420525 
	C897.143311,44.125992 895.896240,42.176510 894.805603,42.150768 
	C884.356506,41.904114 873.899353,42.003258 862.910034,42.003258 
	C862.910034,66.489998 862.910034,90.542961 862.910034,114.706512 
	C841.649414,114.706512 820.930115,114.706512 799.819092,114.706512 
	C799.819092,90.345840 799.819092,66.275978 799.819092,42.292145 
	C788.017822,42.292145 776.612305,42.292145 765.000427,42.292145 
	C765.000427,80.222946 765.000427,117.861473 765.000610,156.500000 
M694.384583,74.965424 
	C697.272095,79.100388 700.433411,83.077766 702.939575,87.432236 
	C704.336792,89.859962 705.520508,91.149872 708.540161,91.062607 
	C716.699341,90.826805 724.873352,90.836113 733.034119,91.040741 
	C736.651611,91.131447 737.442932,89.349770 736.960022,86.435120 
	C733.924072,68.110779 724.476013,54.200638 707.611572,46.172535 
	C692.833496,39.137638 677.016907,37.421436 660.909607,40.107033 
	C649.765747,41.965073 639.568420,46.312313 631.247864,54.254555 
	C619.896973,65.089378 615.318481,78.558937 615.986877,94.046501 
	C616.565430,107.451561 621.664490,118.621788 632.169617,127.139191 
	C643.662598,136.457520 657.582764,140.756683 671.049377,146.072189 
	C680.153809,149.665878 689.367249,153.293640 697.812256,158.156097 
	C705.471985,162.566483 706.242554,170.854691 704.883545,178.833862 
	C703.691040,185.835480 698.711487,190.197388 692.066711,191.878967 
	C686.875610,193.192673 681.379395,193.950226 676.033569,193.876663 
	C662.065796,193.684479 651.118713,187.950500 645.074829,174.765701 
	C643.773987,171.927826 642.094604,170.930481 639.006958,171.017273 
	C631.513550,171.227890 624.004395,171.255142 616.513306,171.004486 
	C612.937012,170.884827 611.738647,172.125381 611.967346,175.589050 
	C613.133911,193.260422 622.544800,205.870483 637.128296,214.539658 
	C657.621399,226.721848 679.579041,227.346893 701.984863,220.525253 
	C722.422852,214.302734 735.267639,200.913712 738.674133,179.606262 
	C741.573608,161.470016 738.018494,144.960159 722.060364,133.813110 
	C714.596985,128.599823 706.014954,124.868584 697.663147,121.074799 
	C685.284912,115.451988 672.427368,110.847046 660.233032,104.871658 
	C653.459900,101.552734 650.037292,95.054985 651.004883,87.070831 
	C651.929016,79.444908 655.741821,73.826210 663.076904,71.040031 
	C673.887329,66.933784 684.110413,68.703308 694.384583,74.965424 
M390.122070,103.499992 
	C390.120239,123.821640 390.179504,144.143616 390.065491,164.464645 
	C390.042480,168.566788 389.722534,172.737534 388.915100,176.751038 
	C386.966919,186.435333 382.241608,191.769348 371.557831,193.891479 
	C361.895599,195.810715 353.741272,191.901688 349.001862,183.225616 
	C347.158661,179.851379 345.079498,179.326736 341.729828,180.543991 
	C334.791199,183.065399 327.863434,185.699326 320.754456,187.639099 
	C316.291473,188.856857 316.004761,191.258987 317.522217,194.578751 
	C321.300537,202.844757 326.744568,209.787781 334.259125,215.065948 
	C349.300232,225.630737 366.006866,227.430634 383.384155,223.706635 
	C394.654449,221.291382 404.414551,215.682114 412.034485,206.630249 
	C423.060059,193.532837 425.411011,177.684402 425.611786,161.606339 
	C426.083893,123.800476 425.776489,85.984871 425.784485,48.173210 
	C425.784882,46.233562 425.784546,44.293919 425.784546,42.302544 
	C413.482422,42.302544 401.921234,42.302544 390.124237,42.302544 
	C390.124237,62.573719 390.124237,82.536850 390.122070,103.499992 
M217.975403,98.431458 
	C225.027557,77.629280 232.018051,56.805882 239.167175,36.037083 
	C241.494888,29.274841 239.753418,26.393093 232.513062,26.247635 
	C226.686676,26.130583 220.846985,26.450296 215.029175,26.201849 
	C210.120728,25.992237 207.475418,28.042244 205.945251,32.669979 
	C198.738525,54.465595 191.421524,76.225723 183.986160,97.944527 
	C174.212036,126.494873 164.291397,154.995071 154.431717,183.516129 
	C148.063049,201.938736 141.651276,220.346558 135.342163,238.789536 
	C133.227859,244.970154 135.314941,247.841248 141.738846,247.890945 
	C147.900696,247.938614 154.064606,247.828262 160.224808,247.940521 
	C164.348251,248.015640 166.935196,246.530884 168.340881,242.367569 
	C175.470520,221.250748 182.776779,200.193390 190.061157,179.129028 
	C199.277069,152.479279 208.531570,125.842857 217.975403,98.431458 
M106.509094,110.996689 
	C114.263618,102.998741 121.961029,94.944206 129.801239,87.031158 
	C132.866180,83.937759 132.942093,81.114685 129.913101,78.090965 
	C125.789955,73.975014 121.760391,69.760567 117.531067,65.756996 
	C113.161118,61.620319 109.808067,61.739185 105.581421,65.956139 
	C84.252296,87.236420 62.928623,108.522171 41.628517,129.831482 
	C36.336338,135.125931 36.397324,138.778702 41.760269,144.155701 
	C63.043983,165.495178 84.336555,186.825806 105.632187,208.153381 
	C109.709938,212.237274 113.427422,212.434723 117.638527,208.429291 
	C121.978790,204.301025 126.103760,199.943100 130.253311,195.618866 
	C132.864517,192.897751 132.838058,190.353867 129.984177,187.542343 
	C120.020790,177.726868 110.241867,167.724518 100.334694,157.851517 
	C93.627289,151.167282 86.822319,144.580948 79.541832,137.441742 
	C88.669426,128.489380 97.334358,119.990807 106.509094,110.996689 
M255.857025,102.617645 
	C267.067841,113.927132 278.278625,125.236618 289.609497,136.667206 
	C288.066986,138.290512 287.072876,139.383286 286.029938,140.427277 
	C271.195740,155.276581 256.346802,170.111221 241.520294,184.968185 
	C236.667557,189.830902 236.672165,193.094406 241.501999,198.007675 
	C244.420883,200.976974 247.404907,203.882141 250.344315,206.831421 
	C256.531769,213.039658 259.499390,213.075882 265.666504,206.826752 
	C286.490143,185.726135 307.292786,164.604782 328.094360,143.482376 
	C332.368805,139.141998 332.368317,134.464111 328.108032,130.200165 
	C324.693604,126.782791 321.223694,123.420853 317.813049,119.999748 
	C300.055176,102.187347 282.308777,84.363503 264.557526,66.544502 
	C259.989746,61.959282 256.684784,61.476604 252.117828,65.503708 
	C247.757126,69.348938 243.664764,73.538994 239.779068,77.868805 
	C236.948166,81.023254 237.181549,84.655449 240.210541,87.663025 
	C245.161545,92.579010 250.297272,97.308968 255.857025,102.617645 
z"/>
<path fill="#010101" opacity="1.000000" stroke="none" 
	d="
M593.888550,136.999817 
	C594.468994,152.456512 593.458191,167.155472 587.573730,181.207901 
	C577.430908,205.429764 559.176514,219.860245 533.559814,223.784561 
	C496.137421,229.517426 460.691803,208.183502 452.959412,166.848877 
	C449.505798,148.387100 450.706665,129.744980 451.286346,111.250664 
	C451.828217,93.962738 457.187592,77.769974 468.297913,63.760479 
	C478.070770,51.437496 490.550385,43.621719 505.597076,40.262974 
	C525.791321,35.755169 544.902527,39.082222 562.027710,51.012039 
	C577.776062,61.982738 586.667419,77.582466 591.445801,95.927742 
	C594.940308,109.343735 593.551025,122.950394 593.888550,136.999817 
M511.595703,72.956322 
	C497.359467,77.000435 489.916931,87.487473 488.118927,101.128174 
	C486.266388,115.182716 486.171509,129.528076 486.183624,143.745453 
	C486.190125,151.378098 487.246002,159.218430 489.199524,166.602295 
	C495.426575,190.139572 521.916138,200.354309 541.976196,186.992050 
	C552.929688,179.695801 557.200500,168.213470 557.863037,155.653275 
	C558.553894,142.554901 558.307068,129.400238 558.225281,116.271713 
	C558.197693,111.844307 557.775269,107.352348 556.927063,103.008301 
	C552.514709,80.413460 534.278870,66.646873 511.595703,72.956322 
z"/>
<path fill="#000000" opacity="1.000000" stroke="none" 
	d="
M765.000488,156.000000 
	C765.000427,117.861473 765.000427,80.222946 765.000427,42.292145 
	C776.612305,42.292145 788.017822,42.292145 799.819092,42.292145 
	C799.819092,66.275978 799.819092,90.345840 799.819092,114.706512 
	C820.930115,114.706512 841.649414,114.706512 862.910034,114.706512 
	C862.910034,90.542961 862.910034,66.489998 862.910034,42.003258 
	C873.899353,42.003258 884.356506,41.904114 894.805603,42.150768 
	C895.896240,42.176510 897.143311,44.125992 897.923645,45.420525 
	C898.366150,46.154690 898.008362,47.372169 898.008301,48.371979 
	C898.007202,103.694870 897.955750,159.017899 898.099243,214.340408 
	C898.110718,218.770599 897.286255,220.458664 892.419617,220.239197 
	C882.801941,219.805496 873.150879,220.111252 862.997864,220.111252 
	C862.997864,196.085144 862.997864,172.355164 862.997864,148.226120 
	C841.913452,148.226120 821.338623,148.226120 800.229980,148.226120 
	C800.229980,171.742416 800.229980,195.608704 800.229980,220.058670 
	C788.948608,220.058670 778.186279,220.161850 767.435242,219.861069 
	C766.583374,219.837250 765.117371,217.017105 765.105103,215.487076 
	C764.946350,195.825714 765.000427,176.162643 765.000488,156.000000 
z"/>
<path fill="#010101" opacity="1.000000" stroke="none" 
	d="
M694.125366,74.701317 
	C684.110413,68.703308 673.887329,66.933784 663.076904,71.040031 
	C655.741821,73.826210 651.929016,79.444908 651.004883,87.070831 
	C650.037292,95.054985 653.459900,101.552734 660.233032,104.871658 
	C672.427368,110.847046 685.284912,115.451988 697.663147,121.074799 
	C706.014954,124.868584 714.596985,128.599823 722.060364,133.813110 
	C738.018494,144.960159 741.573608,161.470016 738.674133,179.606262 
	C735.267639,200.913712 722.422852,214.302734 701.984863,220.525253 
	C679.579041,227.346893 657.621399,226.721848 637.128296,214.539658 
	C622.544800,205.870483 613.133911,193.260422 611.967346,175.589050 
	C611.738647,172.125381 612.937012,170.884827 616.513306,171.004486 
	C624.004395,171.255142 631.513550,171.227890 639.006958,171.017273 
	C642.094604,170.930481 643.773987,171.927826 645.074829,174.765701 
	C651.118713,187.950500 662.065796,193.684479 676.033569,193.876663 
	C681.379395,193.950226 686.875610,193.192673 692.066711,191.878967 
	C698.711487,190.197388 703.691040,185.835480 704.883545,178.833862 
	C706.242554,170.854691 705.471985,162.566483 697.812256,158.156097 
	C689.367249,153.293640 680.153809,149.665878 671.049377,146.072189 
	C657.582764,140.756683 643.662598,136.457520 632.169617,127.139191 
	C621.664490,118.621788 616.565430,107.451561 615.986877,94.046501 
	C615.318481,78.558937 619.896973,65.089378 631.247864,54.254555 
	C639.568420,46.312313 649.765747,41.965073 660.909607,40.107033 
	C677.016907,37.421436 692.833496,39.137638 707.611572,46.172535 
	C724.476013,54.200638 733.924072,68.110779 736.960022,86.435120 
	C737.442932,89.349770 736.651611,91.131447 733.034119,91.040741 
	C724.873352,90.836113 716.699341,90.826805 708.540161,91.062607 
	C705.520508,91.149872 704.336792,89.859962 702.939575,87.432236 
	C700.433411,83.077766 697.272095,79.100388 694.125366,74.701317 
z"/>
<path fill="#030303" opacity="1.000000" stroke="none" 
	d="
M390.123169,102.999985 
	C390.124237,82.536850 390.124237,62.573719 390.124237,42.302544 
	C401.921234,42.302544 413.482422,42.302544 425.784546,42.302544 
	C425.784546,44.293919 425.784882,46.233562 425.784485,48.173210 
	C425.776489,85.984871 426.083893,123.800476 425.611786,161.606339 
	C425.411011,177.684402 423.060059,193.532837 412.034485,206.630249 
	C404.414551,215.682114 394.654449,221.291382 383.384155,223.706635 
	C366.006866,227.430634 349.300232,225.630737 334.259125,215.065948 
	C326.744568,209.787781 321.300537,202.844757 317.522217,194.578751 
	C316.004761,191.258987 316.291473,188.856857 320.754456,187.639099 
	C327.863434,185.699326 334.791199,183.065399 341.729828,180.543991 
	C345.079498,179.326736 347.158661,179.851379 349.001862,183.225616 
	C353.741272,191.901688 361.895599,195.810715 371.557831,193.891479 
	C382.241608,191.769348 386.966919,186.435333 388.915100,176.751038 
	C389.722534,172.737534 390.042480,168.566788 390.065491,164.464645 
	C390.179504,144.143616 390.120239,123.821640 390.123169,102.999985 
z"/>
<path fill="#020202" opacity="1.000000" stroke="none" 
	d="
M217.872406,98.816071 
	C208.531570,125.842857 199.277069,152.479279 190.061157,179.129028 
	C182.776779,200.193390 175.470520,221.250748 168.340881,242.367569 
	C166.935196,246.530884 164.348251,248.015640 160.224808,247.940521 
	C154.064606,247.828262 147.900696,247.938614 141.738846,247.890945 
	C135.314941,247.841248 133.227859,244.970154 135.342163,238.789536 
	C141.651276,220.346558 148.063049,201.938736 154.431717,183.516129 
	C164.291397,154.995071 174.212036,126.494873 183.986160,97.944527 
	C191.421524,76.225723 198.738525,54.465595 205.945251,32.669979 
	C207.475418,28.042244 210.120728,25.992237 215.029175,26.201849 
	C220.846985,26.450296 226.686676,26.130583 232.513062,26.247635 
	C239.753418,26.393093 241.494888,29.274841 239.167175,36.037083 
	C232.018051,56.805882 225.027557,77.629280 217.872406,98.816071 
z"/>
<path fill="#010101" opacity="1.000000" stroke="none" 
	d="
M106.254189,111.244461 
	C97.334358,119.990807 88.669426,128.489380 79.541832,137.441742 
	C86.822319,144.580948 93.627289,151.167282 100.334694,157.851517 
	C110.241867,167.724518 120.020790,177.726868 129.984177,187.542343 
	C132.838058,190.353867 132.864517,192.897751 130.253311,195.618866 
	C126.103760,199.943100 121.978790,204.301025 117.638527,208.429291 
	C113.427422,212.434723 109.709938,212.237274 105.632187,208.153381 
	C84.336555,186.825806 63.043983,165.495178 41.760269,144.155701 
	C36.397324,138.778702 36.336338,135.125931 41.628517,129.831482 
	C62.928623,108.522171 84.252296,87.236420 105.581421,65.956139 
	C109.808067,61.739185 113.161118,61.620319 117.531067,65.756996 
	C121.760391,69.760567 125.789955,73.975014 129.913101,78.090965 
	C132.942093,81.114685 132.866180,83.937759 129.801239,87.031158 
	C121.961029,94.944206 114.263618,102.998741 106.254189,111.244461 
z"/>
<path fill="#010101" opacity="1.000000" stroke="none" 
	d="
M255.606049,102.367523 
	C250.297272,97.308968 245.161545,92.579010 240.210541,87.663025 
	C237.181549,84.655449 236.948166,81.023254 239.779068,77.868805 
	C243.664764,73.538994 247.757126,69.348938 252.117828,65.503708 
	C256.684784,61.476604 259.989746,61.959282 264.557526,66.544502 
	C282.308777,84.363503 300.055176,102.187347 317.813049,119.999748 
	C321.223694,123.420853 324.693604,126.782791 328.108032,130.200165 
	C332.368317,134.464111 332.368805,139.141998 328.094360,143.482376 
	C307.292786,164.604782 286.490143,185.726135 265.666504,206.826752 
	C259.499390,213.075882 256.531769,213.039658 250.344315,206.831421 
	C247.404907,203.882141 244.420883,200.976974 241.501999,198.007675 
	C236.672165,193.094406 236.667557,189.830902 241.520294,184.968185 
	C256.346802,170.111221 271.195740,155.276581 286.029938,140.427277 
	C287.072876,139.383286 288.066986,138.290512 289.609497,136.667206 
	C278.278625,125.236618 267.067841,113.927132 255.606049,102.367523 
z"/>
<path fill="#FEFEFE" opacity="1.000000" stroke="none" 
	d="
M511.979034,72.805153 
	C534.278870,66.646873 552.514709,80.413460 556.927063,103.008301 
	C557.775269,107.352348 558.197693,111.844307 558.225281,116.271713 
	C558.307068,129.400238 558.553894,142.554901 557.863037,155.653275 
	C557.200500,168.213470 552.929688,179.695801 541.976196,186.992050 
	C521.916138,200.354309 495.426575,190.139572 489.199524,166.602295 
	C487.246002,159.218430 486.190125,151.378098 486.183624,143.745453 
	C486.171509,129.528076 486.266388,115.182716 488.118927,101.128174 
	C489.916931,87.487473 497.359467,77.000435 511.979034,72.805153 
z"/>
</svg>